<svg xmlns="http://www.w3.org/2000/svg" xmlns:xlink="http://www.w3.org/1999/xlink" id="evWE5sHNFBl1" viewBox="0 0 383 353"><style><![CDATA[#evWE5sHNFBl2_tr {animation: evWE5sHNFBl2_tr__tr 3000ms linear infinite normal forwards}@keyframes evWE5sHNFBl2_tr__tr { 0% {transform: translate(123.466415px,77.606319px) rotate(0deg)} 50% {transform: translate(123.466415px,77.606319px) rotate(-9deg);animation-timing-function: cubic-bezier(0.42,0,1,1)} 100% {transform: translate(123.466415px,77.606319px) rotate(0deg)}} #evWE5sHNFBl3_to {animation: evWE5sHNFBl3_to__to 3000ms linear infinite normal forwards}@keyframes evWE5sHNFBl3_to__to { 0% {transform: translate(211.809471px,128.309212px)} 36.666667% {transform: translate(208px,133px);animation-timing-function: cubic-bezier(0,0,0.58,1)} 100% {transform: translate(211.809471px,128.309212px)}} #evWE5sHNFBl4_tr {animation: evWE5sHNFBl4_tr__tr 3000ms linear infinite normal forwards}@keyframes evWE5sHNFBl4_tr__tr { 0% {transform: translate(184.634315px,279.538933px) rotate(0deg)} 60% {transform: translate(184.634315px,279.538933px) rotate(10deg);animation-timing-function: cubic-bezier(0.42,0,1,1)} 100% {transform: translate(184.634315px,279.538933px) rotate(0deg)}} #evWE5sHNFBl6_to {animation: evWE5sHNFBl6_to__to 3000ms linear infinite normal forwards}@keyframes evWE5sHNFBl6_to__to { 0% {transform: translate(227.609604px,222.562828px)} 40% {transform: translate(232px,218px)} 100% {transform: translate(227.609604px,222.562828px)}}]]></style><g id="evWE5sHNFBl2_tr" transform="translate(123.466415,77.606319) rotate(0)"><path d="M118.27,79.5711c1.652,6.1488,9.672,10.93,15.652,9.7141c2.074-.4589,2.072-1.8909,2.393-3.3617c1.516-6.8045,5.066-11.9078,11.932-14.2681c3.761-1.2918,7.03-.6848,8.963,1.7115c2.312,2.9161,2.387,6.5733.253,10.0091-2.526,4.1134-6.365,6.7154-10.398,9.1304-1.12.6335-2.296,1.2344-3.561,1.8591.627,5.1809,2.983,9.3265,6.759,12.7115c1.75,1.538,3.901,2.252,6.347,1.933c2.503-.287,4.856.469,5.007,3.342.126,2.784-2.063,3.703-4.622,3.957-6.626.768-11.317-2.467-14.973-7.364-2.36-3.094-4.168-6.623-5.23-10.3981-.439-1.4585-.988-2.0761-2.712-2.0929-11.148.114-19.34-4.2393-22.826-15.4376-.616-1.9367-2.147-1.7664-3.619-2.0893C98.0408,77.002,90.3836,72.5058,86.6564,62.9c-2.9895-7.7494-.8805-17.1479,5.1565-22.7727c1.7957-1.6738,3.6178-1.8265,5.449-.1668c1.9444,1.7249,1.4187,3.6801-.0683,5.0804-4.5999,4.5722-5.8837,9.9296-3.3969,15.8076c2.6631,6.3562,8.1893,9.3207,14.5623,10.8171c2.047.5038,2.868-.5277,3.474-2.3611c1.926-5.8154,5.538-10.5059,10.604-14.0564c5.674-3.952,14.077-1.6607,16.644,4.339c1.725,3.9325.036,7.2492-2.363,10.2305-3.913,4.8184-9.651,6.3996-15.204,8.3135-1.168.4552-2.277.4173-3.244,1.44Zm.989-8.765c4.56-.4545,8.356-2.3286,11.654-5.1679.926-.8206,1.846-2.0215,1.026-3.4737-.853-1.3959-2.212-1.6535-3.728-1.2485-4.992,1.3342-7.08,5.474-8.952,9.8901Zm24.814,14.4767c4.24-1.4673,6.516-3.8425,6.535-6.6174-3.551,1.1876-4.453,2.0973-6.535,6.6174Z" transform="translate(-123.466415,-77.606319)" fill="#ed688d"></path></g><g id="evWE5sHNFBl3_to" transform="translate(211.809471,128.309212)"><path d="M230.995,124.048c-2.062-5.243-3.79-9.619-5.631-14.059-4.596-10.985-2.523-24.5743,7.86-31.6393c7.725-5.2225,17.359-2.4375,20.749,5.8995c1.141,2.7603,1.045,5.5572-.304,8.1561-.853,1.6091-2.072,2.9317-4.171,2.0948-1.929-.7381-3.508-1.95-2.843-4.418.593-2.21.852-4.2371-1.533-5.764-2.246-1.3719-4.386-1.4813-6.777-.2347-5.96,3.0885-7.299,8.6956-7.742,14.5943-.347,4.6783,1.446,8.9413,3.328,13.1803c1.833,4.06,3.634,8.177,4.687,12.538c1.052,4.36-.24,5.941-4.698,6.295-6.613.535-12.603-2.248-18.851-3.529-.407-.084-.806-.315-1.213-.399-2.888-.392-5.963-.591-8.02,1.524-2.211,2.251.069,4.618.794,6.913.979,3.042,3.291,5.352,4.358,8.371c5.731,15.992-3.075,34.401-21.653,37.11-6.19.855-12.13-.698-17.647-3.508-2.344-1.203-3.631-2.922-2.282-5.521c1.381-2.655,3.756-2.56,5.889-1.253c4.036,2.48,8.178,3.07,12.839,2.759c9.175-.632,16.865-8.952,17.257-18.708.281-6.143-2.652-11.064-5.429-16.12-3.714-6.723-3.271-13.147,1.631-16.771c2.944-2.204,6.506-2.849,10.249-2.49c5.117.478,10.064,1.908,14.873,3.709.977.414,2.14.635,4.28,1.27Z" transform="translate(-211.809471,-128.309212)" fill="#e0c1dc"></path></g><g id="evWE5sHNFBl4_tr" transform="translate(184.634315,279.538933) rotate(0)"><path d="M153.649,256.816c-2.323,3.498-2.866,6.54-.686,9.594c1.939,2.681,5.483,3.634,9.21,2.43c1.575-.496,3.081-1.265,4.633-1.852c6.65-2.326,11.641.321,13.314,7.141.843,3.53,1.289,7.222,2.041,10.778.96,4.378,2.915,5.194,6.877,3.189c1.506-.769,2.955-1.572,4.404-2.374c7.198-4.195,14.009-.497,14.36,7.823.076,1.839.219,3.56,1.054,5.135c1.909,3.521,5.495,3.875,8.115.783.711-.838,1.319-1.892,2.054-2.639c1.333-1.259,2.988-1.63,4.513-.594c1.547,1.128,2.098,2.538,1.176,4.659-2.462,5.447-7.248,8.615-12.99,8.188-5.243-.374-9.605-4.375-10.864-9.941-.359-1.612-.536-3.275-.622-4.964-.171-2.986-1.623-2.966-3.694-1.742-1.517.919-3.01,1.93-4.607,2.725-7.71,3.9-14.688.886-16.9-7.494-.785-3.106-1.116-6.341-1.719-9.499-.961-4.769-2.233-5.192-6.581-3.175-5.639,2.675-11.197,2.979-16.623-.623-7.406-4.9-8.138-17.419-1.231-23.343c1.232-1.084,2.501-1.444,3.889-.564c1.558.977,2.256,2.395,1.799,4.238-.155.925-.753,1.829-.922,2.121Z" transform="translate(-184.634315,-279.538933)" fill="#fecd3e"></path></g><path d="M299.704,267.335c1.787-3.611,5.097-4.592,8.585-5.241c3.954-.685,4.92-2.487,3.426-6.318-.933-2.365-1.623-4.894-2.733-7.209-3.957-8.297,1.321-16.284,9.112-18.864c2.844-.946,5.845-1.648,8.722-2.651c4.802-1.641,5.789-3.735,4.133-8.572-.652-1.823.027-3.257,1.485-4.242c1.823-1.231,3.444-.828,4.926.713c2.743,2.954,2.831,9.093.224,12.839-2.541,3.631-6.09,5.54-10.085,6.81-2.667.896-5.402,1.524-8.057,2.655-4.291,1.784-5.395,4.723-3.643,9.007c1.281,3.175,3.037,6.168,3.51,9.713c1.108,8.098-1.388,11.908-9.395,13.449-2.902.532-4.547,1.713-4.509,4.855.029,1.235.223,2.184,1.259,3.086c1.826,1.587,2.602,3.71,1.562,6.153-.799,1.898-2.591,2.69-4.475,2.744-2.494.082-4.143-1.555-4.808-3.613-1.691-5.162-1.618-10.295.761-15.314Z" fill="#ed688d"></path><g id="evWE5sHNFBl6_to" transform="translate(227.609604,222.562828)"><path d="M224.555,220.255c-1.75-1.159-3.197-.879-4.556-1.143-3.787-.772-6.244-3.456-6.487-7.094-.268-3.726,2.022-7.168,5.384-8.278c2.109-.642,4.309-.786,5.414,1.489c1.162,2.308.155,4.183-2.293,5.151-.42.204-.727.473-.709,1.228c1.143,1.032,2.719.527,4.078.791c5.988,1.151,8.409,5.599,5.809,11.019-.886,1.796-1.974,3.549-3.005,5.336-1.192,2.065-.953,4.138,1.145,5.349c2.097,1.211,3.737.074,4.913-1.703.412-.581.83-1.307,1.323-1.767c1.38-1.212,2.99-1.25,4.545-.278c1.612,1.005,1.914,2.445,1.352,4.204-1.783,5.445-8.707,8.666-14.325,6.614-5.675-2.086-8.788-8.87-6.302-14.355.998-2.252,2.425-4.331,3.714-6.563Z" transform="translate(-227.609604,-226)" fill="#47b1e4"></path></g><path d="M74.7577,152.753c2.4165-4.186,3.9162-4.849,6.2285-3.438c2.2564,1.38,1.8652,3.218.7852,5.346-4.0325,8.146-3.0781,16.036,2.6008,22.449.9968,1.11,2.1818,2.024,3.4331,2.823c2.1116,1.372,3.0897,3.16,1.7656,5.453-1.3573,2.351-3.531,1.86-5.44.911-5.1913-2.615-8.2767-7.072-10.1975-12.386-2.7333-7.388-2.4385-14.862.8243-21.158Z" fill="#fecd3e"></path><path d="M77.8128,242.379c-.2575-.224-1.1529-.816-1.8348-1.51-1.3893-1.477-1.5767-3.162-.3371-4.773c1.265-1.521,2.8544-1.73,4.7172-.804c8.2702,4.024,12.1475,3.335,17.9712-3.136c1.4785-1.623,3.1867-2.438,5.1697-.918c1.9,1.397,2.022,3.194.91,5.254-4.209,8.229-17.2918,11.334-26.5962,5.887Z" fill="#09b1ab"></path></svg>