<svg xmlns="http://www.w3.org/2000/svg" xmlns:xlink="http://www.w3.org/1999/xlink" id="eDvWMYyhRor1" viewBox="0 0 191 137"><style><![CDATA[#eDvWMYyhRor10_tr {animation: eDvWMYyhRor10_tr__tr 3000ms linear infinite normal forwards}@keyframes eDvWMYyhRor10_tr__tr { 0% {transform: translate(26.862951px,75.644918px) rotate(0deg)} 40% {transform: translate(26.862951px,75.644918px) rotate(5deg);animation-timing-function: cubic-bezier(0.42,0,1,1)} 100% {transform: translate(26.862951px,75.644918px) rotate(0deg)}} #eDvWMYyhRor13_tr {animation: eDvWMYyhRor13_tr__tr 3000ms linear infinite normal forwards}@keyframes eDvWMYyhRor13_tr__tr { 0% {transform: translate(123.801453px,104.302902px) rotate(0deg)} 50% {transform: translate(123.801453px,104.302902px) rotate(-3deg);animation-timing-function: cubic-bezier(0.42,0,0.58,1)} 100% {transform: translate(123.801453px,104.302902px) rotate(0deg)}}]]></style><path d="M111.382,105.809c0,0,7.206,9.842,7.991,17.193.786,7.351,2.098,8.401,0,9.844-2.094,1.443-12.709,4.33-18.473,3.413-5.7662-.92-10.6141-2.233-10.8742-4.463-.2629-2.232,2.3575-15.489,0-20.212-2.3604-4.725,21.3562-5.775,21.3562-5.775Z" fill="#daeb67"></path><path d="M27.9043,87.5637c0,0-6.8295,13.7833-7.0754,19.0323-.246,5.249,4.4719,7.351,14.5607,7.351s12.5763-1.313,12.9693-2.102c.3957-.787,2.8833-11.09,2.8833-11.09L27.9043,87.5637Z" fill="#daeb67"></path><path d="M109.785,129.534c.057-.422.114-.844.17-1.266.223-.803.63-1.502,1.218-2.094.32-.249.642-.495.962-.744.737-.43,1.537-.645,2.391-.648.653-.026,1.264.113,1.826.41.591.19,1.097.518,1.527.982.463.43.788.94.98,1.528.297.566.433,1.178.408,1.832-.054.418-.111.84-.17,1.262-.223.804-.63,1.503-1.218,2.094-.32.249-.639.498-.959.744-.74.431-1.537.646-2.394.648-.653.026-1.261-.113-1.826-.41-.588-.19-1.097-.518-1.527-.982-.463-.43-.788-.94-.98-1.528-.297-.566-.433-1.175-.408-1.828Z" fill="#a4b53b"></path><path d="M101.355,132.386c.093-2.081,1.685-3.841,3.836-3.841c2.004,0,3.926,1.766,3.833,3.841-.093,2.083-1.685,3.843-3.833,3.843-2.007,0-3.929-1.766-3.836-3.843Z" fill="#a4b53b"></path><path d="M94.2975,131.794c.1075-.379.2969-.708.5739-.985.1498-.116.2996-.232.4494-.348.3477-.204.7237-.303,1.1251-.306.3053-.011.5908.054.8565.193.277.09.5145.243.718.461.2177.201.3703.442.4608.719.1385.266.2007.552.1894.858-.0255.198-.0509.396-.0792.594-.1046.377-.2968.705-.571.983-.1498.119-.3025.235-.4523.351-.3477.201-.7208.303-1.1222.303-.3081.014-.5936-.051-.8593-.19-.2742-.09-.5145-.243-.7152-.464-.2177-.201-.3703-.439-.4608-.716-.1385-.267-.2035-.552-.1922-.861.0283-.198.0537-.394.0791-.592Z" fill="#a4b53b"></path><path d="M40.4856,108.24c.147-.518.407-.971.7887-1.353.2035-.161.4127-.32.619-.481.4777-.277.9922-.416,1.5463-.419.4212-.014.8141.074,1.1816.263.3788.125.7067.337.9865.637.2968.277.5088.606.6332.988.1922.365.2799.758.2629,1.183-.0368.271-.0735.543-.1102.815-.1442.521-.4071.971-.7859,1.355-.2092.159-.4155.32-.6219.479-.4777.277-.9922.419-1.5462.419-.4212.017-.8141-.071-1.1788-.264-.3816-.124-.7095-.336-.9865-.634-.2997-.28-.5117-.608-.6332-.987-.1923-.365-.2799-.762-.2658-1.183.0368-.272.0735-.544.1103-.818Z" fill="#a4b53b"></path><path d="M33.3628,109.03c.1159-.413.3251-.773.6275-1.078.1668-.128.3308-.255.4947-.383.3816-.22.7915-.331,1.2325-.334.3335-.011.6473.06.9385.213.3024.099.5653.266.7858.504.2375.22.4042.484.506.787.1527.291.2205.605.2092.942-.0283.218-.0594.433-.0876.651-.1159.414-.3251.773-.6276,1.079-.1639.128-.3307.255-.4947.382-.3788.221-.7886.332-1.2296.334-.3364.012-.6502-.056-.9413-.212-.3025-.096-.5626-.266-.7859-.504-.2374-.221-.407-.484-.5031-.787-.1527-.292-.2234-.606-.2121-.943.0311-.215.0594-.433.0877-.651Z" fill="#a4b53b"></path><path d="M26.9316,109.041c.0905-.323.2544-.606.4919-.843.3731-.343.8311-.561,1.3484-.561.2629-.008.5088.045.7349.164.2375.077.441.21.6163.397.1865.172.3166.379.3929.614.1187.229.1752.475.1668.738-.0255.17-.0481.34-.0707.507-.0905.326-.2544.606-.489.843-.376.346-.8339.561-1.3512.561-.2629.011-.506-.045-.735-.164-.2375-.077-.441-.21-.6134-.397-.1866-.172-.3194-.376-.3958-.614-.1187-.229-.1724-.472-.1639-.736.0226-.169.0452-.339.0678-.509Z" fill="#a4b53b"></path><g id="eDvWMYyhRor10_tr" transform="translate(26.862951,75.644918) rotate(0)"><path d="M22.1526,68.6504c0,0-3.7963,7.3655-12.0505,6.3157-8.25422-1.0526-9.825914-5.314-10.088804-2.0005-.262891,3.3107,3.539124,9.2048,12.842104,9.6123c9.3001.4046,13.9727-.8829,13.9727-.8829L22.1526,68.6504Z" transform="translate(-26.86295,-75.644917)" fill="#daeb67"></path></g><path d="M153.57,87.1702c0,0,7.338,8.5313,8.517,14.8328c1.179,6.299,2.357,9.055,1.179,11.941-1.179,2.889-6.157,5.908-13.102,6.302-6.943.393-13.103-.527-14.018-2.493-.919-1.97-.246-14.194-2.285-18.7776-2.04-4.5868,19.709-11.8052,19.709-11.8052Z" fill="#b4c44e"></path><path d="M136.11,39.8727c0,0-10.315-25.147-57.7766-22.3174-47.4588,2.8268-58.0705,47.122-57.4826,52.1418.5908,5.0197-5.5998,30.4159,42.4498,39.5699c48.0494,9.154,64.8524-4.726,64.8524-4.726v-4.7253l11.943-38.9782-3.986-20.9648Z" fill="#93a524"></path><g id="eDvWMYyhRor13_tr" transform="translate(123.801453,104.302902) rotate(0)"><g transform="translate(-123.801448,-100.302894)"><path d="M133.459,54.3436c0,0-7.081-49.02067,16.653-53.449057s37.882,8.268207,40.536,23.033257c2.651,14.765-10.318,18.0106-17.393,18.602-7.076.5914-10.66,4.7255-11.519,11.8138-.862,7.0854,8.57,20.9648-2.629,32.4814-11.203,11.5166-30.953,12.9909-30.953,12.9909s-.656-6.6072-2.098-12.2524c-1.442-5.6423-3.669-15.0933-1.312-22.8352c2.361-7.7447,8.715-10.3847,8.715-10.3847Z" fill="#daeb67"></path><path d="M160.622,25.4528c3.047,4.8226,8.279,8.131,13.992,8.5725c2.855.2207,5.739-.2491,8.387-1.3274c1.38-.5603,2.686-1.2962,3.896-2.1622c1.218-.8717,2.284-1.916,3.462-2.8386.136-.1075.334.0227.246.1896-1.436,2.6971-4.489,4.5622-7.219,5.7225-2.799,1.1858-5.886,1.749-8.919,1.4972-6.018-.4981-11.66-3.9367-14.886-9.0423-.418-.6594.628-1.2679,1.041-.6113Z" fill="#666d23"></path><path d="M147.898,12.9974c.144-.5123.404-.9594.78-1.3387.204-.1585.407-.3169.611-.4726.475-.2745.984-.4132,1.529-.416.418-.0142.806.0707,1.168.2632.376.1217.698.3311.972.6254.297.2745.506.6.628.9764.189.3623.277.7528.26,1.1689-.037.2688-.071.5377-.108.8065-.144.5151-.404.9594-.78,1.3387-.204.1585-.407.3169-.611.4726-.472.2774-.983.4132-1.529.416-.415.017-.806-.0707-1.167-.2603-.373-.1246-.699-.3312-.973-.6283-.297-.2745-.506-.6-.627-.9764-.19-.3623-.277-.75-.26-1.1688.036-.2689.07-.5378.107-.8066Z" fill="#666d23"></path><path d="M180.384,8.78976c.204.5832.458,1.07014.78,1.60234.323.5323.775,1.0051,1.024,1.5741.339.7729-.215,1.4835-1.041,1.3561-1.566-.2406-2.917-2.0214-3.587-3.34066-1.009-1.98741,2.078-3.32651,2.824-1.19188Z" fill="#f7f8a7"></path><path d="M174.562,10.6598c.651-.2747,1.468-.0397,1.824.6001.11.1982.203.4106.285.6229.003.0056.006.0113.012.017.042.0707.079.1472.124.2151.008.017.037.051.059.0793.029.0311.06.0651.071.0736.133.1359.246.2746.348.4303.285.3256.395.7588.209,1.2032-.204.4841-.738.7956-1.264.6908-.014,0-.031,0-.053.0028-.114-.0141-.227-.0311-.343-.0453-.127-.0311-.347-.1443-.486-.2179-.246-.1331-.475-.3115-.687-.4927-.441-.3708-.822-.8804-.944-1.4523-.155-.7191.153-1.4353.845-1.7269Z" fill="#f7f8a7"></path><path d="M169.116,3.84881c1.161-.60868,2.156.16137,3.143.76439.84.51242,1.919,1.10128,2.211,2.09782.158.54073-.193,1.10128-.716,1.25982-.986.30293-2.131-.34539-3.007-.76156-1.089-.51525-2.135-.89744-2.276-2.23371-.045-.42749.274-.93425.645-1.12676Z" fill="#f7f8a7"></path><path d="M166.051,6.80016c.673-1.05006,1.951-.64249,2.742.01698.207.16982.413.35379.6.54343.169.17265.322.35096.418.57456.054.18114.074.20944.062.08491.077.11887.122.24907.13.38776.079.55192-.127,1.1095-.718,1.27083-.735.20095-1.402-.12171-2.125-.49815-.806-.42172-1.722-1.42933-1.109-2.38032Z" fill="#f7f8a7"></path><path d="M157.865,4.12615c.244-.24345.608-.3397.942-.24912.313.08776.599.35103.675.6794.017.07644.034.1557.054.23496.065.28875.003.58598-.212.80113-.212.21231-.509.27742-.797.20948-.079-.01699-.158-.0368-.235-.05379-.325-.07643-.591-.36234-.675-.67657-.094-.33403.002-.69921.248-.94549Z" fill="#f7f8a7"></path><path d="M183.294,15.2803c.45-.2405.885-.0792,1.171.3057.011.0142.022.0283.031.0425.031.0226.073.0594.13.1047.085.0736.178.1528.254.2349.045.0396.065.0566.062.0594.125.0878.226.1982.306.3312.09.15.141.3311.189.501.122.4132-.076.9396-.464,1.1434-.429.2265-.865.1415-1.229-.1556-.142-.1189-.266-.2265-.365-.3935-.088-.1528-.127-.3368-.186-.5009-.037-.1048-.08-.2095-.114-.317.057.0707.057.0622-.002-.0312-.031-.0509-.063-.1019-.091-.1528-.226-.3878-.102-.9567.308-1.1718Z" fill="#f7f8a7"></path><path d="M139.571,11.6675c.642-.8689,1.323-1.75187,2.092-2.51035.424-.41319.984.02265.911.52924-.162,1.10661-.478,2.22451-.815,3.29141-.336,1.0698-.746,2.0688-1.899,2.4141-.554.167-1.069-.2009-1.247-.7104-.404-1.1433.3-2.131.958-3.014Z" fill="#f7f8a7"></path><path d="M136.711,23.4984c.113-.617.438-1.2.656-1.7858.217-.583.452-1.149.692-1.7235.224-.5378,1.159-.733,1.298,0c.119.6424.229,1.2763.328,1.9188.099.6736.302,1.3471.282,2.032-.031.999-.873,1.766-1.877,1.6302-1.043-.1416-1.557-1.0896-1.379-2.0717Z" fill="#f7f8a7"></path><path d="M140.839,17.5445c.06-.2292.164-.3792.317-.5575.037-.0397.074-.0736.113-.1133.249-.3821.769-.5179,1.182-.3424.186.0792.367.2151.466.3991.082.1585.116.3141.119.4783.022.1217.028.2491.028.3736.006.2123-.062.4444-.169.6312-.06.1019-.17.2207-.249.3226-.074.0566-.147.1132-.221.1698-.085.0368-.172.0736-.257.1076-.237.0651-.483.0424-.707-.0538-.384-.1641-.672-.5576-.664-.9906.003-.1444.006-.2774.042-.4246Z" fill="#f7f8a7"></path><path d="M143.921,6.46641c.226-.20948.506-.3397.82-.3397.296,0,.61.12739.819.3397.201.20099.354.53219.339.82094-.014.30007-.11.61429-.339.82094-.226.20948-.506.34253-.819.34253-.297,0-.611-.13022-.82-.34253-.201-.20099-.354-.5322-.339-.82094.011-.30007.11-.61146.339-.82094Z" fill="#f7f8a7"></path><path d="M136.229,30.0145c.113-.6934,1.289-.6962,1.402,0c.353,2.1679,1.139,4.4716.935,6.6989.258,1.7971-2.88,2.5131-3.214.5632-.409-2.4056.489-4.9074.877-7.2621Z" fill="#f7f8a7"></path><path d="M140.266,27.5881c.421-.6115.788-1.3589.867-2.1035.082-.7785,1.131-.988,1.394-.1897.339,1.0277.56,1.9874.625,3.0774.062,1.0192-1.035,1.7524-1.959,1.4976-.913-.2519-1.501-1.4438-.927-2.2818Z" fill="#f7f8a7"></path><path d="M142.497,38.7442c.438-.6735.664-1.4093.673-2.2188.014-1.1518,1.594-1.6075,2.182-.5915.769,1.3415.902,2.7622.619,4.2792-.209,1.132-1.603,1.6414-2.567,1.2339-.995-.4217-1.54-1.7349-.907-2.7028Z" fill="#f7f8a7"></path><path d="M139.127,45.0269c.056-.5181.116-.4728.251-.9541.017-.0396.037-.0764.057-.1161-.11.1614-.085.0793.082-.2463-.037.0963.005-.0028.062-.1217.006-.0651.011-.1302.017-.1925.039-.402.254-.7616.661-.872.354-.0991.868.051,1.021.4162.048.1104.096.2236.144.3369.057.0566.113.1189.167.1897-.057-.1218.005-.0453.186.2321.006.0028.006.0057.012.0085.333.4247.562.8153.704,1.3504l-.003-.0028c.042.1415.065.2944.065.4615c0,.6086-.331,1.1833-.854,1.4891-1.176.6908-2.527-.2038-2.595-1.4891-.008-.1671.003-.3228.023-.4898Z" fill="#f7f8a7"></path><path d="M144.659,27.6405c.026-.1472.04-.2292.147-.3962.127-.1981.303-.3991.515-.501.209-.1217.432-.1811.672-.1811.184-.0085.357.0311.515.1132.164.0538.308.1472.429.2774.164.1669.28.3622.343.5887.022.0679.033.1358.033.2094.04.1812.032.3595-.025.5406-.042.1302-.099.2746-.181.3849-.071.0906-.141.1812-.209.2689-.122.133-.266.2264-.433.2774-.104.0623-.217.0934-.336.0934-.102.0226-.201.0283-.302.0198-.187.0028-.382-.034-.54-.1387-.108-.0679-.201-.1528-.283-.249c0,0,0-.0001-.003-.0029-.13-.1189-.223-.2632-.277-.4302-.059-.1047-.09-.2179-.09-.3396-.04-.1783-.031-.3567.025-.535Z" fill="#f7f8a7"></path><path d="M134.958,45.7246c.127-.9509,1.405-.6877,1.67,0c.506,1.3075.806,2.649,1.199,3.9905.673,2.281-3.259,2.7593-3.141.4245.077-1.483.074-2.9377.272-4.415Z" fill="#f7f8a7"></path><path d="M137.807,57.381c.192-.3567.534-.637.924-.804.071-.3652.153-.7361.337-1.0532.339-.5832,1.297-.6398,1.622,0c.218.4332.289.9767.348,1.4552.054.4558.144.9116.158,1.3731.04,1.1918-1.065,2.0242-2.216,1.6788-1.108-.3313-1.741-1.5967-1.173-2.6499Z" fill="#f7f8a7"></path><path d="M142.804,51.9388c.02-.3566.04-.7047.026-1.0614-.017-.5038.401-.9481.887-1.0076.455-.0537,1.043.2265,1.122.7359.054.351.136.6821.221,1.0274.037.1416.079.2916.107.4359.068.3425.003.5972-.09.9199-.246.8576-1.561,1.1265-1.999.2604-.144-.2859-.288-.5208-.299-.8576-.006-.1472.014-.3057.025-.4529Z" fill="#f7f8a7"></path><path d="M129.645,61.5c.809-1.149,1.773-2.1254,2.85-3.0112.655-.5406,1.588-.0368,1.416.8235-.26,1.3104-.65,2.5358-1.221,3.7499-.484,1.0274-1.654,2.4396-2.957,1.6585-1.199-.7189-.724-2.3207-.088-3.2207Z" fill="#f7f8a7"></path><path d="M127.881,71.2521c.105-.4983.209-.9569.424-1.4212.175-.3822.515-.6484.687-1.0164.286-.6087,1.17-.3822,1.346.1784-.065-.2039.076.15.118.2123.201.2916.306.5322.413.8663.17.5294.187,1.0645.229,1.6165.071.9966-.953,1.7355-1.857,1.6138-1.009-.1388-1.566-1.0815-1.36-2.0497Z" fill="#f7f8a7"></path><path d="M133.182,64.6532c.17-1.0701.75-1.7609,1.485-2.497.684-.6879,1.766-.1443,1.823.7588.068,1.0729.005,1.9506-.588,2.8877-.458.7275-1.097,1.7948-2.12,1.3617-1.024-.4332-.738-1.6477-.6-2.5112Z" fill="#f7f8a7"></path><path d="M127.783,79.0916c.453-.7754,1.711-.6368,1.937.2547.328,1.2934.995,2.8726.698,4.1999-.252,1.1292-1.829,1.5339-2.606.6877-1.261-1.3669-.891-3.6593-.029-5.1423Z" fill="#f7f8a7"></path><path d="M131.959,87.9204c.017-.0934.028-.1924.051-.283.04-.1415.099-.2689.175-.3877.034-.1189.082-.2293.139-.3453.175-.3538.613-.569.995-.569.435,0,.752.2321.995.569.037.0537.068.1103.096.1698.065.0764.122.1556.164.2264.079.1387.13.3085.184.4585.039.1076.085.2151.118.3255.128.4246.06.9114-.18,1.2878l-.009-.0113c-.031.0566-.068.1104-.107.1613-.515.6708-1.612.818-2.217.15-.296-.3283-.494-.6821-.494-1.1378c0-.1953.056-.416.09-.6142Z" fill="#f7f8a7"></path><path d="M132.882,73.6988c.012-.0226.029-.0424.043-.0651.008-.0764.019-.1556.042-.2349.102-.3793.396-.7897.749-.9765.379-.2009.837-.3,1.255-.1641.388.1245.792.3708.976.75.169.351.268.6397.274,1.0388c0,.0877-.026.2066-.034.2688-.009.0623-.017.1868-.04.2689-.082.3114-.234.5604-.446.801-.232.2576-.535.4217-.857.5321-.164.0566-.356.0793-.526.0849-.175.0085-.353-.0339-.523-.0594-.121-.051-.243-.1019-.364-.1528-.178-.0963-.32-.2265-.427-.3935-.201-.2575-.342-.5915-.328-.9255.011-.2717.082-.5321.206-.7727Z" fill="#f7f8a7"></path><path d="M138.22,67.0672c.079-.906.35-1.9988,1-2.6273.421-.4105,1.091-.5096,1.603-.2066.531.3114.724.9144.611,1.4976-.167.8408-.911,1.6109-1.595,2.1544-.63.9456-1.933.1812-1.619-.8181Z" fill="#f7f8a7"></path><path d="M152.361,2.19897c.006,0,.014,0,.02,0-.003.00285-.006.00285-.012.00285-.002,0-.005-.00285-.008-.00285Z" fill="#f7f8a7"></path><path d="M159.72,2.25303c.101-.35946.409-.71042.788-.78967.512-.10473.958-.0934,1.456.07359.478.16416.823.45285,1.136.73023.529.46984.207,1.29913-.395,1.49725-.272.08774-.535.19813-.84.20662-.308.01132-.729-.0368-1.015-.12737-.673-.21793-1.348-.81231-1.13-1.59065Z" fill="#f7f8a7"></path><path d="M150.681,2.94358c.105-.37366.404-.67656.777-.77847.263-.07077.529-.06228.792.00283.037.00849.073.01981.113.03114-.003,0-.003,0-.006,0c.003,0,.003.00283.006.00283h.003c.003,0,.005,0,.005,0c.009.00283.017.00283.023.00566s.006.00283.011.00566c.031.00566.012-.01132-.022-.01415.031-.00566.062-.0085.076-.01133.164-.03963.325-.05661.481-.03963.11-.00283.217.00283.339.02548.234.04246.455.28025.509.50955.042.18966.039.35668,0,.5237-.02.58032-.648.94833-1.14,1.12384-.548.19816-1.274.17834-1.679-.3029-.263-.31139-.398-.67657-.288-1.08421Z" fill="#f7f8a7"></path></g></g><path d="M31.8552,52.844c.7801,1.0639,1.3964,2.2269,2.1737,3.2937.7831,1.0696,1.6792,2.0571,2.6318,2.9739c1.9335,1.8676,4.1356,3.4352,6.4337,4.8189c4.9412,2.9739,10.346,5.2829,15.7791,7.1901c5.6112,1.9751,11.4032,3.4691,17.2688,4.4482c5.9419.9932,11.9262,1.644,17.9585,1.4572c3.4176-.1075,6.8322-.3876,10.2212-.8517c3.398-.464,6.751-1.1856,10.14-1.7006.068-.0113.096.0821.028.1075-5.698,1.9695-11.996,2.609-17.9892,2.9542-6.2161.3593-12.4831.2773-18.6794-.3141-6.086-.5773-12.1636-1.9298-17.9924-3.7521-5.7723-1.8053-11.4513-4.1086-16.7204-7.0967-2.6713-1.5139-5.2324-3.2598-7.4854-5.3594-2.1455-1.9977-4.5595-4.6179-5.2917-7.5268-.2459-.9649.9837-1.3809,1.5237-.6423Z" fill="#c0cc37"></path><path d="M48.231,29.2985c.2573-.5943,1.2834-.3,1.2269.3339-.5626,6.2563,6.6853,8.6106,11.3523,10.3395c5.5377,2.0486,11.276,3.5229,17.1077,4.417c11.6491,1.7855,23.4761,1.0696,34.8571-1.9722c5.953-1.5931,13.874-4.7199,13.407-12.2241-.019-.331.535-.4159.588-.0792.995,6.0781-4.573,10.3678-9.56,12.3485-5.95,2.3656-12.308,3.704-18.6595,4.3747-12.8562,1.3525-26.0007-.3254-38.1474-4.734-3.1518-1.1432-6.5666-2.3232-9.2379-4.4058-2.5243-1.9637-4.3052-5.2489-2.9342-8.3983Z" fill="#c0cc37"></path><path d="M68.6719,20.6623c.2487-.3396.8084-.3339.9328.1217.2148.7868.2431,1.5424.6417,2.2783.3561.6537.8791,1.2339,1.4727,1.6811c1.306.982,2.9794,1.3839,4.5398,1.7518c3.4883.8207,7.0557,1.2594,10.64,1.2735c3.4883.017,7.0811-.3537,10.4337-1.3471c1.4671-.4358,3.0814-1.1151,3.8584-2.5273.687-1.2481.585-2.8188-.56-3.7555-.169-.1387.048-.3595.218-.283c1.956.8858,2.12,3.6565,1.066,5.2951-1.648,2.5612-5.2948,3.2829-8.0537,3.8235-3.4204.6735-6.968.8434-10.4393.5971-3.3865-.2462-6.9991-.7018-10.2047-1.8678-1.5038-.5463-2.9851-1.3472-3.9405-2.6688-.8254-1.1462-1.535-3.099-.6049-4.3726Z" fill="#c0cc37"></path><path d="M115.966,77.7502c-2.36-.948-7.598,2.0713-20.7004,2.8579-13.1021.7895-16.6412-2.5156-18.7359-1.5195-2.0975.996-4.9779,23.8314-3.4091,26.3274c1.5745,2.492,16.6413,3.672,28.3014,2.492c11.661-1.182,20.048-2.232,20.308-5.775.263-3.5426-5.764-24.3828-5.764-24.3828Z" fill="#c0cc37"></path><path d="M67.884,78.5087c-.7887-.7895-14.0208-4.0691-18.9988-6.8251-4.978-2.7561-7.2083-4.9887-8.3871-4.8557-1.1787.1302-10.0887,20.2121-9.04,24.5443c1.0487,4.3293,6.0267,7.4787,15.5925,10.2348c9.563,2.756,14.9367,5.252,17.6872,3.546c2.7533-1.707,1.1787-9.9749,2.4904-16.2765c1.3088-6.2988.6558-10.3678.6558-10.3678Z" fill="#c0cc37"></path><path d="M32.9633,61.4119c-1.1788-1.279-3.9292-9.8274-5.6988-8.9445-1.7667.8857-5.2069,12.6852-5.2069,17.9031c0,5.2178,1.0798,10.73,2.6515,12.6994c1.5745,1.9694,2.7278-3.6417,5.5914-9.3519c2.8607-5.7074,3.4515-10.2377,3.4515-10.532c0-.2942-.7887-1.7741-.7887-1.7741Z" fill="#c0cc37"></path><path d="M125.14,40.1841c0,0-.263,1.7063-6.682,4.069-6.42,2.3627-8.91,1.9694-8.91,4.3322c0,2.3599.797,17.4617,4.983,16.2761c4.187-1.1828,16.11-9.0577,16.373-12.9966.26-3.936-5.764-11.6807-5.764-11.6807Z" fill="#c0cc37"></path><path d="M90.8106,48.9786c0,0,11.1344-1.0498,12.5764,0s4.195,17.3118,3.539,18.9586c-.656,1.6469-7.9912,5.7159-16.1154,4.9264-8.1242-.7866-11.0046-.3933-12.9721-1.8364-1.9646-1.4431-.3872-22.722,2.6233-22.5155c3.0105.2038,10.3488.4669,10.3488.4669Z" fill="#c0cc37"></path><path d="M62.1178,44.6466c0,0,9.9842.7866,10.298,3.1494.3166,2.3627-.7322,20.7384-3.2226,21.658-2.4875.9168-11.5304-2.4957-17.8172-5.3819-6.2895-2.8891-7.9941-4.4624-4.5878-10.3678c3.4062-5.9083,6.5525-13.2569,8.91-12.3373c2.3603.9168,6.4196,3.2796,6.4196,3.2796Z" fill="#c0cc37"></path><path d="M45.6737,31.981c0,0,.6925,3.1494,2.0833,4.5274c1.388,1.378,2.1229,1.5082,1.9533,2.0345s-7.4429,17.4561-9.9983,17.2608c-2.5526-.1981-6.2896-3.5455-7.2705-6.5648-.9837-3.0163-.9837-4.6179,1.7696-7.9512c2.7504-3.3362,6.0917-7.2722,8.4492-8.7153c2.3576-1.446,3.0134-.5914,3.0134-.5914Z" fill="#c0cc37"></path><path d="M104.993,22.6291c0,0,1.179,2.5608-.885,4.1341-2.063,1.5761-4.127,1.3978-3.338,2.9145.786,1.5167,10.707,10.2433,12.675,10.5064c1.965.2632,9.433-3.0843,10.27-7.1193.834-4.0379-3.98-6.3978-10.564-9.1539-6.586-2.7589-8.158-1.2818-8.158-1.2818Z" fill="#c0cc37"></path><path d="M90.0567,31.217c0,0,5.3567-2.3854,7.1489-.7131c1.795,1.6723,9.7524,9.4567,8.2794,10.7838-1.475,1.3242-8.9408,2.6513-14.7414,2.4787-5.7949-.1697-6.6797.0255-7.1715-.6621-.4919-.6904-.7859-12.5013,1.3766-12.4023c2.1597.099,5.108.515,5.108.515Z" fill="#c0cc37"></path><path d="M73.453,28.9759c0,0,6.9736.4386,7.4655,2.756.4947,2.3175-.3929,9.9943-1.2749,10.4867-.8848.4923-8.6471-.6225-12.5791-2.0345-3.9293-1.412-6.5836-1.7374-5.207-4.5275c1.3738-2.79,4.814-9.1878,7.3694-8.4011c2.5526.7894,4.2261,1.7204,4.2261,1.7204Z" fill="#c0cc37"></path><path d="M65.7857,21.6471c.1979.2943,1.9647,2.8523,1.7696,3.5427-.1979.6904-9.9248,9.1539-11.4004,9.1539-1.4728,0-5.8938-3.056-5.4048-5.3678.4919-2.3118,2.0664-4.0832,7.5673-5.7555c5.5037-1.6723,7.4683-1.5733,7.4683-1.5733Z" fill="#c0cc37"></path><path d="M86.7152,18.8883c0,0-13.4668-.1981-14.3007,1.8707-.8311,2.0688,9.1927,5.1451,17.4469,4.0018c8.2542-1.1462,11.3976-4.9867,6.0917-5.4791s-9.2379-.3934-9.2379-.3934Z" fill="#c0cc37"></path><path d="M112.609,115.043c.034-.47.466-.903.97-.739.364.119.65.257.927.538.243.246.435.552.596.855.436.807.65,1.797.229,2.633-.446.877-1.998.956-2.42,0-.322-.737-.178-1.181-.22-1.894-.025-.453-.116-.926-.082-1.393Z" fill="#f7f8a7"></path><path d="M109.318,117.153c.053-.127.101-.252.144-.385.045-.147.09-.294.17-.433.107-.184.243-.314.401-.419.447-.351,1.043-.356,1.495-.017.173.108.32.244.424.436.071.136.125.289.17.433.039.133.088.258.141.385.074.272.074.544,0,.813-.073.26-.203.486-.393.676-.296.275-.664.447-1.08.447-.39,0-.802-.17-1.079-.447-.19-.19-.32-.416-.393-.676-.074-.269-.074-.541,0-.813Z" fill="#f7f8a7"></path><path d="M105.986,117.501c.093-.175.33-.388.542-.45.023-.011.046-.025.071-.037.223-.093.472-.119.71-.053.229.065.424.203.565.393.144.181.246.422.235.66-.02.441-.261.826-.67.999-.34.144-.699.102-.99-.079-.034-.015-.065-.029-.099-.043-.118-.062-.215-.15-.285-.26-.13-.173-.226-.394-.218-.617.009-.179.054-.351.139-.513Z" fill="#f7f8a7"></path><path d="M26.8379,98.1842c.1752-.4558.3901-.8635.6077-1.2966.1753-.3454.6389-.504.9979-.4077.4014.1104.6134.4643.6501.8578.0877.8975.3647,2.1714-.4014,2.8533-.5512.49-1.5179.485-1.8967-.2459-.3364-.6483-.1979-1.1296.0424-1.7609Z" fill="#f7f8a7"></path><path d="M30.2556,99.1596c.3335-.1981.7604-.1981,1.0967,0c.54.317.7633,1.0164.5456,1.5964-.0367.09-.0763.181-.1131.274-.0706.131-.1696.238-.2911.317-.1922.15-.441.258-.6897.247-.2036-.009-.3958-.063-.5739-.156-.2714-.142-.424-.41-.5258-.682-.2148-.58.0085-1.2794.5513-1.5964Z" fill="#f7f8a7"></path></svg>