<?xml version="1.0" encoding="utf-8"?>
<!-- Svg Vector Icons : http://www.onlinewebfonts.com/icon -->
<!DOCTYPE svg PUBLIC "-//W3C//DTD SVG 1.1//EN" "http://www.w3.org/Graphics/SVG/1.1/DTD/svg11.dtd">
<svg version="1.1" xmlns="http://www.w3.org/2000/svg" xmlns:xlink="http://www.w3.org/1999/xlink" x="0px" y="0px" viewBox="0 0 256 256" enable-background="new 0 0 256 256" xml:space="preserve">
<metadata> Svg Vector Icons : http://www.onlinewebfonts.com/icon </metadata>
<g><g><g><path fill="#000000" d="M227.8,24c-3.1,1.1-4.2,2-11.9,9.3c-4.3,4.1-9,8.6-10.7,10.1l-2.9,2.7l-2.9-1.8c-22.2-14.2-52.1-21.6-79.7-19.9c-16.8,1.1-30.3,4.6-45.7,12c-12.6,6.1-22.9,13.2-32.3,22.3C32.1,68.1,26,76.5,20.3,88.2c-16,32.6-13.2,69.6,7.4,97.1c4.4,5.9,14.8,16.7,21.2,22.1c15,12.6,30.9,20.8,46.8,24.2c7,1.5,20.1,1.5,26,0c7.4-1.8,14.5-5.6,19.8-10.3c9-8,15.4-21.6,22.8-48.6c3.8-13.7,5.9-18.1,11.5-24c3.7-3.9,7.1-6.4,16.2-12.3c10.1-6.5,14.7-10,20.6-15.9c7.8-7.8,12.9-16.6,14.7-25.2c1.8-8.4,0-19.4-4.2-26.7l-1.2-2.1L233,55.9c12.6-12.2,13-12.9,13-18.5c0-4.5-1.1-7.2-4.2-10.1C238.2,23.8,232.2,22.4,227.8,24z M235.7,31.8c2.9,1.9,4,5.6,2.4,8.5c-0.5,0.8-21.1,20.9-46,44.6c-36.2,34.6-45.5,43.3-46.9,43.7c-3.6,1.1-7.3-0.8-8.4-4.2c-0.8-2.5-0.2-4.7,1.8-6.8c3.7-4,88.9-85.2,90.2-86C230.9,30.4,233.7,30.4,235.7,31.8z M140.1,31.6c14.8,1.5,28.3,5.1,41.2,10.9c5.6,2.5,15.1,8,15.3,8.8c0,0.2-13.2,13.1-29.4,28.6c-35.5,33.8-36.4,34.8-37.4,37.8l-0.7,2.3l-4.2,1c-7,1.7-12.5,5.3-17.2,11.2c-2.7,3.5-5.7,9.4-6.5,13.1c-0.8,3.7-0.4,10.6,0.8,14c0.6,1.5,1.9,4.1,3.1,5.8c2.1,3,7.2,7.9,7.2,6.9c0-1.4,3.8-8.3,5.7-10.4c3-3.3,5.1-4.6,10.2-6.4c11-4,15-7.8,16.5-15.7c0.6-2.9,0.6-3,2.2-3.5c0.9-0.2,2.4-0.9,3.3-1.5c1-0.6,14.7-13.5,30.6-28.8s30.5-29.1,32.3-30.8l3.4-3.1l0.9,1.8c2.3,4.5,3,7.9,3,13.9c0,4.8-0.2,6.3-1.1,9c-2.5,7.4-7,14.1-13.6,20.4c-5,4.8-9.2,7.9-17.4,13.2c-9,5.7-12.9,8.7-17.1,12.8c-7.2,7.2-10,12.9-14.3,28.8c-3.5,12.8-7.6,24.5-11.5,32.3c-5.2,10.3-13.6,17.2-24.6,20.2c-5.5,1.5-17,1.5-23.7,0c-20.1-4.5-41.5-18-57.8-36.4c-6.1-6.9-9.7-12-13.1-18.9C10.2,136.7,16,99,41.5,69.5c17-19.7,45.3-34.2,73.1-37.6C120.7,31.1,133.7,31,140.1,31.6z M131.3,130c0.9,1.3,2.7,3.1,4.1,4.1c2.4,1.6,2.4,1.7,2.2,3.6c-0.5,4.7-3.3,7.4-10.1,9.8c-7,2.4-10.4,4.4-14.1,8.3l-3.4,3.4l-0.8-1.8c-0.6-1.3-0.8-3-0.8-6.7c0-4.8,0-4.9,1.9-8.8c3.3-6.7,8.1-11,14.4-13.2C129.2,127.2,129.5,127.3,131.3,130z"/><path fill="#000000" d="M127,37.6c-2.9,0.7-6.3,2.7-8.4,4.9c-8.5,8.7-5.9,22.8,5.2,28c2.8,1.3,3.5,1.5,7.2,1.5c3.2,0,4.8-0.3,6.8-1.1c3.7-1.4,7.3-4.9,9.2-8.7c1.4-2.8,1.5-3.4,1.5-7.5s-0.1-4.7-1.5-7.5c-1.9-3.9-5.5-7.3-9.2-8.7C134.9,37.4,129.7,37,127,37.6z M135.7,45.6c5.3,2.8,7.2,9.2,4.2,14.4c-5.1,8.7-18.8,4.9-18.8-5.3c0-4.3,2.5-8,6.6-9.6C129.6,44.4,133.9,44.7,135.7,45.6z"/><path fill="#000000" d="M71.4,68.7c-8.5,2.8-13.7,11.2-12.2,19.6c1.7,9.4,11,16.1,19.9,14.4c6.3-1.2,10.9-4.6,13.5-10.2c1.3-2.7,1.5-3.6,1.4-7c0-5-1.2-8.3-4.4-11.8c-3.5-3.7-7.2-5.4-12.4-5.6C74.9,68.1,72.6,68.3,71.4,68.7z M81.8,76.9c9,5.2,5.3,18.7-5.2,18.6c-10.7-0.1-14.2-14.1-4.7-18.9C75.3,75,78.6,75.1,81.8,76.9z"/><path fill="#000000" d="M46.7,116.1c-4.8,1.6-8.5,4.8-10.8,9.3c-1.2,2.3-1.3,3-1.3,7.4c0,4.4,0.1,5.1,1.3,7.5c1.8,3.6,4.8,6.6,8.5,8.4c2.8,1.3,3.5,1.5,7.5,1.5c3.8,0,4.8-0.2,7.1-1.2c3.7-1.8,7.3-5.3,8.9-8.8c1.2-2.5,1.3-3.4,1.3-7.2c0-4.1-0.1-4.7-1.5-7.5c-1.9-3.9-5.5-7.3-9.2-8.7C54.7,115.1,50.1,114.9,46.7,116.1z M57.4,124.3c3.1,1.9,4.8,5.4,4.6,9.2c-0.2,3.8-1.9,6.3-5.4,8.1c-7.1,3.6-14.8-1.1-14.8-8.8C41.8,124.7,50.5,120,57.4,124.3z"/><path fill="#000000" d="M72.5,162.7c-6.9,1.8-12,7.3-13.3,14.4c-1.3,7.3,2.7,15,9.6,18.4c2.9,1.4,3.5,1.5,7.7,1.5c4.3,0,4.8-0.1,7.7-1.5c7.6-3.7,11.4-12,9.4-19.9c-1.9-7.6-8.3-12.7-16.1-13.2C75.8,162.3,73.5,162.5,72.5,162.7z M79.8,170.2c2.7,0.8,5.9,4.2,6.7,6.9c1.3,4.7-0.8,9.5-5.1,11.6c-9.5,4.7-19.1-5.9-13.2-14.5C70.7,170.5,75.3,168.9,79.8,170.2z"/></g></g></g>
</svg>